Coordinates
version=1
nRows=17
nColumns=36
inDegrees=yes

Units are S.I. units (second, meters, Newtons, ...)
If the header above contains a line with 'inDegrees', this indicates whether rotational values are in degrees (yes) or radians (no).

endheader
time	pelvis_tilt	pelvis_list	pelvis_rotation	pelvis_tx	pelvis_ty	pelvis_tz	hip_flexion_r	hip_adduction_r	hip_rotation_r	knee_angle_r	knee_angle_r_beta	ankle_angle_r	subtalar_angle_r	mtp_angle_r	hip_flexion_l	hip_adduction_l	hip_rotation_l	knee_angle_l	knee_angle_l_beta	ankle_angle_l	subtalar_angle_l	mtp_angle_l	lumbar_extension	lumbar_bending	lumbar_rotation	arm_flex_r	arm_add_r	arm_rot_r	elbow_flex_r	pro_sup_r	arm_flex_l	arm_add_l	arm_rot_l	elbow_flex_l	pro_sup_l
      2.13333330	     -2.64553430	      1.37792310	      0.48799374	      0.38450977	      1.25873282	      0.08603786	     15.63439910	     -7.00962830	     -9.70388360	     33.21537772	      0.57971770	    -10.90409911	    -19.97624538	     -7.49999987	     12.73614453	     -4.91715868	     -7.40102650	     50.94596578	      0.88917484	     -1.47635381	     -0.89220241	     -7.49999987	    -13.04607962	     -3.58774970	     -3.82740871	    -30.01291073	     -8.04624190	    -54.30845278	     22.23085631	     71.71605323	    -22.43926767	    -17.77531503	    -64.52138147	     16.86031620	     75.64651925
      2.15000000	     -3.39959620	      1.15832957	      0.23584378	      0.40998989	      1.23775184	      0.08326011	     16.53408196	     -7.27440419	    -10.89303499	     30.51504220	      0.53258796	    -10.93280347	    -15.01886005	     -7.49999987	     12.09390089	     -5.72068563	     -9.30455332	     45.58696084	      0.79564256	     -0.75384827	      0.53115165	     -7.49999987	    -11.89578666	     -3.35863735	     -4.51092155	    -31.81120758	     -9.29134529	    -55.11648965	     23.18543847	     70.73327117	    -24.98833984	    -18.61338560	    -66.30369139	     14.41222439	     74.82788354
      2.16666670	     -4.20841406	      1.01922459	      0.07517264	      0.41582047	      1.22157906	      0.08069329	     17.30923953	     -7.34070571	    -11.33206673	     27.50361946	      0.48002872	    -12.55433310	    -12.65547403	     -7.49999987	     12.33726623	     -5.85370142	    -11.07473073	     38.29216452	      0.66832435	     -1.64682488	      2.76889941	     -7.49999987	    -11.25357892	     -3.00568834	     -4.50165063	    -33.64210097	    -10.22209757	    -55.29993753	     24.29260482	     70.14417582	    -26.62854889	    -19.33410694	    -66.91533216	     13.29052731	     74.60785377
      2.18333330	     -5.03421040	      0.73903784	      0.21920018	      0.42477978	      1.20121427	      0.08046248	     17.96291033	     -7.22589458	    -12.42412857	     23.25243624	      0.40583157	    -14.79385969	    -10.20119127	     -7.49999987	     12.54292360	     -6.18572779	    -12.20638286	     31.11937174	      0.54313550	     -3.39804215	      5.45777542	     -7.49999987	    -11.21636837	     -2.48421440	     -4.85852624	    -34.69538762	    -10.86658507	    -54.82349139	     24.97832433	     69.70452354	    -27.59412771	    -19.87846141	    -67.00986155	     12.19194516	     74.66244763
      2.20000000	     -5.44605185	      0.25955117	      0.48338976	      0.43934590	      1.17831608	      0.07359019	     17.94439770	     -7.18859271	    -13.23579127	     18.24720362	      0.31847378	    -16.69814099	     -6.34183705	     -7.49999987	     12.36793855	     -6.46412194	    -13.38880060	     24.20353620	      0.42243140	     -5.06851501	      8.16102519	     -7.49999987	    -11.17180075	     -1.44628906	     -5.32379196	    -35.97885068	    -11.83410472	    -53.38574350	     25.77334248	     69.58055369	    -28.98564741	    -19.54374707	    -66.01466503	     11.65126696	     75.13188273
      2.21666670	     -5.46840662	      0.17035278	     -0.08981529	      0.45975233	      1.15060604	      0.07344577	     17.06129944	     -7.07740591	    -14.47939267	     13.92048726	      0.24295834	    -18.20895384	     -2.58650688	     -7.49999987	     12.04177972	     -6.45851559	    -15.42955453	     18.50021891	      0.32288973	     -7.84544490	     10.67676250	     -7.49999987	    -11.25456312	     -1.00958384	     -5.16572984	    -37.69334817	    -12.96227278	    -51.23217406	     26.78870826	     69.52381793	    -30.93112728	    -19.12215120	    -64.18169019	     11.54922459	     75.86848627
      2.23333330	     -5.77380743	      0.25357122	     -1.12539865	      0.46134838	      1.11719581	      0.07378041	     17.90881506	     -7.07576306	    -15.04418311	     10.26850874	      0.17921929	    -20.65500109	     -0.01979007	     -7.49999987	     12.88031557	     -6.58564646	    -17.99382215	     14.00477044	      0.24442936	    -11.34592380	     11.86517225	     -7.49999987	    -11.72794100	     -1.07004006	     -5.55994218	    -38.04813256	    -15.75376891	    -42.90991628	     26.14379640	     66.66777121	    -34.57538759	    -18.42874502	    -50.04538768	     13.28776168	     78.55798002
      2.25000000	     -5.94016364	      0.37585189	     -1.66943277	      0.47592488	      1.08237370	      0.07938937	     18.77604757	     -7.07232657	    -15.51858305	      7.66378243	      0.13375824	    -21.51886917	      2.76184197	     -7.49999987	     13.84075455	     -6.96925947	    -18.95562533	     10.30341021	      0.17982843	    -12.32922975	     13.81459501	     -7.49999987	    -12.65938133	     -1.25342162	     -4.92971623	    -39.53859845	    -15.85206087	    -40.90924939	     29.79251919	     59.34630059	    -36.63066280	    -18.98134588	    -36.80635263	     15.74128582	     68.78610757
      2.26666670	     -5.89887176	      0.61061531	     -1.80846645	      0.49099896	      1.05405615	      0.07881934	     19.36990387	     -7.25286908	    -15.73989968	      6.23529062	      0.10882635	    -23.18023689	      3.58032363	     -7.49999987	     15.26271398	     -7.14776050	    -19.07003318	      8.34601143	      0.14566538	    -13.59771611	     14.68202837	     -7.49999987	    -13.62307103	     -1.54816130	     -4.45329970	    -38.53239789	    -15.90572844	    -40.60627713	     30.45582309	     59.46465800	    -35.86386681	    -18.73565893	    -36.57590435	     16.02556460	     68.88664229
      2.28333330	     -5.24598391	      0.72971912	     -2.13491956	      0.50518416	      1.01816279	      0.07368764	     19.37814761	     -7.60827022	    -15.71878232	      5.40785617	      0.09438490	    -25.42807980	      4.19781133	     -7.49999987	     16.13384376	     -7.29876470	    -19.25662941	      7.68061042	      0.13405194	    -15.57970201	     15.06385401	     -7.49999987	    -15.26075786	     -1.58803539	     -4.66967517	    -38.50229995	    -16.78148597	    -36.30546613	     33.85262285	     61.93961038	    -37.46658829	    -17.60923430	    -31.19286644	     20.52815320	     69.45426932
      2.30000000	     -4.49868492	      0.54416338	     -1.80812967	      0.51402851	      0.98154444	      0.06872753	     19.91846298	     -8.07282260	    -14.55428297	      7.12178233	      0.12429855	    -26.57669023	      3.75398450	     -7.49999987	     17.85029420	     -7.69142314	    -17.90701595	      9.90333196	      0.17284575	    -15.81703836	     15.01509251	     -7.49999987	    -17.26594082	     -1.13539756	     -3.93700599	    -37.02921724	    -16.42439387	    -35.09343629	     35.31393185	     62.41075114	    -35.83034678	    -16.46652126	    -30.33037665	     22.71230782	     68.96922611
      2.31666670	     -3.73777849	      0.07753293	     -1.74789836	      0.51984578	      0.93509146	      0.07257956	     21.20430813	     -7.86447329	    -12.27761867	     10.86545755	      0.18963801	    -23.51516836	      1.96089683	     -7.49999987	     20.14566879	     -9.04306704	    -16.24852091	     14.17531494	      0.24740592	    -13.94638639	     13.92163805	     -7.49999987	    -19.74038276	     -0.50609871	     -2.93871920	    -34.85608850	    -16.29526378	    -33.67790237	     36.88101369	     62.74775727	    -34.10062835	    -15.86537833	    -29.69769289	     25.78307082	     68.15003349
      2.33333330	     -3.46636266	     -0.41624040	     -2.03772708	      0.52934726	      0.90082005	      0.06906252	     24.55413364	     -7.52200311	     -9.55670674	     19.14807141	      0.33419689	    -15.40033856	     -3.21751969	     -7.49999987	     23.38694462	    -10.24088022	    -13.81104961	     22.15801958	      0.38673040	     -5.28114466	     10.72223034	     -7.49999987	    -22.05176711	      0.00500610	     -2.52052087	    -30.42422495	    -17.35266323	    -27.62228923	     35.25016990	     65.25829824	    -31.17343457	    -14.89609071	    -27.59871515	     26.06711414	     66.09047410
      2.35000000	     -2.51770363	     -0.64294426	     -1.62739376	      0.54591292	      0.87508517	      0.07250457	     27.44274232	     -7.16250637	     -7.34480029	     30.16573689	      0.52649143	     -5.08047717	    -10.03850800	     -7.49999987	     27.03157815	    -11.34232879	    -11.53805555	     33.10780758	      0.57784025	      4.05903830	      6.24028046	     -7.49999987	    -24.94946807	      0.12686917	     -2.15830830	    -24.77107972	    -16.91880139	    -23.85526182	     32.29159467	     66.41828230	    -26.97271641	    -14.47793235	    -25.63630343	     25.83441119	     65.01628629
      2.36666670	     -2.05396126	     -1.01663566	     -1.32825276	      0.53903518	      0.83610956	      0.07749640	     34.40171910	     -6.41092123	     -4.22424025	     45.55417910	      0.79507041	      3.97891349	    -18.01652895	     -7.49999987	     32.99598732	    -12.93586893	     -8.84720040	     46.55876295	      0.81260371	     14.24324668	      3.89397191	     -7.49999987	    -28.71165076	      0.29721479	     -1.92564658	    -19.19261947	    -15.70270955	    -22.09401603	     32.50226371	     66.12028296	    -21.84831512	    -13.92828209	    -25.96598700	     25.16195962	     63.92564839
      2.38333330	     -1.62262881	     -1.31423115	     -0.91946205	      0.54545340	      0.80414666	      0.07151504	     40.46638446	     -5.94884042	     -1.96875699	     59.18046706	      1.03289400	     11.85330994	    -22.25785660	     -7.49999987	     38.12919662	    -13.12244517	     -5.67392391	     58.25897794	      1.01681098	     22.78969143	      0.88840697	     -7.49999987	    -32.16708694	      0.77885630	     -2.17590810	    -13.16485220	    -14.90998557	    -18.04867492	     32.55132212	     67.93951950	    -16.80048344	    -13.62431474	    -24.29419507	     25.47037516	     64.30088123
      2.40000000	     -1.61898173	     -1.11370087	     -0.67878837	      0.54794434	      0.78364016	      0.06297183	     45.24553111	     -6.08237796	     -0.12968509	     68.46796992	      1.19499151	     16.59693816	    -24.47573649	     -7.49999987	     42.52748630	    -11.88041502	     -2.75518298	     67.06322245	      1.17047404	     28.34070490	     -1.38803556	     -7.49999987	    -36.30248518	      0.75995331	     -1.93992162	     -6.90077777	    -13.84638357	    -15.96504093	     34.05418929	     68.62875837	    -10.77002357	    -13.00950163	    -23.48906514	     25.97084391	     64.51830378
